<?xml version="1.0" encoding="utf-8"?>
<!-- Generator: Adobe Illustrator 16.0.0, SVG Export Plug-In . SVG Version: 6.00 Build 0)  -->
<!DOCTYPE svg PUBLIC "-//W3C//DTD SVG 1.0//EN" "http://www.w3.org/TR/2001/REC-SVG-20010904/DTD/svg10.dtd">
<svg version="1.0" id="Layer_1" xmlns="http://www.w3.org/2000/svg" xmlns:xlink="http://www.w3.org/1999/xlink" x="0px" y="0px"
	 width="61px" height="115.333px" viewBox="0 0 61 115.333" style="enable-background:new 0 0 61 115.333;" xml:space="preserve">
<style type="text/css">
<![CDATA[
	.st0{fill:none;stroke:#FFFFFF;stroke-miterlimit:10;}
	.st1{fill:#FFFFFF;}
]]>
</style>
<g>
	<line class="st0" x1="32.035" y1="77.734" x2="7.941" y2="114.736"/>
	<line class="st0" x1="31.96" y1="77.734" x2="56.052" y2="114.736"/>
</g>
<g>
	<polygon class="st1" points="34.664,23.043 30.087,23.045 30.339,26.58 34.607,25.756 35.673,24.174 	"/>
	<polygon class="st1" points="13.358,43.797 12.495,42.994 10.242,42.993 10.328,45.324 12.897,44.896 	"/>
	<polygon class="st1" points="20.801,42.105 18.501,45.359 18.407,51.867 20.765,54.783 23.517,52.514 23.501,45.259 	"/>
	<path class="st1" d="M59.31,18.385L29.182,0L0.479,20.541l1.427,38.926l30.13,18.387l28.7-20.543L59.31,18.385z M44.791,20.38
		l1.215,0.163l0.051,11.59l1.379,3.493l1.129-2.21l0.65-12.99l1.779-0.314L50.166,33.9l-2.971,4.236l-2.539-5.535L44.791,20.38z
		 M38.748,20.559l0.477,7.447l3.15-1.023l0.066-6.59l1.434-0.021l-0.268,17.771l-1.398,0.062l-0.117-9.555l-2.814,0.926l0.055,8.807
		l-1.297,0.089l-0.662-18.07L38.748,20.559z M20.768,20.927l2.168,4.257l3.562-4.384l1.333,0.743l-4.322,5.245l0.055,11.506
		l-1.85,0.109l0.225-12.183l-2.125-4.676L20.768,20.927z M16.229,21.51l3.675,3.533l-0.174,2.842l-1.232-0.287l-0.074-2.04
		l-2.139-2.591l-2.077,2.078l0.278,4.201l5.09,0.48l-0.047,5.921l-4.124,3.153l-2.155-1.922l0.601-1.107l2,1.512l2.537-2.428
		l-0.366-4.32l-4.445,0.078l-0.44-6.322L16.229,21.51z M11.985,21.748l0.392,17.498l-1.167,0.043l-0.808-17.482L11.985,21.748z
		 M2.783,36.846l0.672-1.108l2.453,2.077l2.598-3.68l-0.235-3.16L2.693,31.18l-0.122-6.584L5.544,21.4l3.812,3.53l-0.094,2.338
		l-1.067,0.039l0.061-1.587l-2.664-2.987l-2.104,2.578l0.292,4.743l5.881-0.049l0.117,4.832L5.61,39.41L2.783,36.846z
		 M15.586,56.807l-5.396-8.391v9.089l-1.336-0.034L8.364,44.062L8.34,41.146l5.356,0.554l1.572,1.943l-1.252,2.215l-2.703,1.35
		l5.335,9.061L15.586,56.807z M21.11,56.952l-4.23-4.069l-0.31-8.438l3.923-4.367l4.234,4.068l0.309,8.438L21.11,56.952z
		 M30.6,56.924l-3.808-3.771l-0.673-9.271l4.598-4.226l3.759,2.444l0.045,3.539L33.167,45.1l-0.163-2.207l-2.129-1.176l-3.317,2.777
		l0.382,8.101l2.425,2.494l2.671-2.237l0.072-2.585l1.579-0.132l0.027,3.023L30.6,56.924z M30.226,27.96l1.089,10.341l-1.894,0.07
		l-1.048-16.849l7.14,0.155l1.623,2.693l-1.773,2.65L30.226,27.96z M43.845,56.355l-5.133-8.068l-0.363,8.27l-1.42-0.115
		l0.225-16.603l1.338,0.118l0.225,6.162l5.688-4.127l0.705,1.057l-6.1,4.227l6.215,8.027L43.845,56.355z M53.052,52.938
		l-3.971,3.143l-3.189-2.812l0.895-0.646l2.324,2.026l2.656-2.617l-0.145-3.945l-5.502,0.066L45.9,42.098l3.221-3.114l3.355,2.806
		l0.1,2.652l-1.174-0.094l-0.658-2.088l-1.396-1.65l-2.252,2.262l0.32,4.144l5.924,0.054L53.052,52.938z M51.531,35.844l0.625-1.136
		l1.834,1.134l2.369-2.49l-0.232-5.201l-4.309-0.375v-5.7l2.365-2.624l3.189,2.91l0.162,3.244l-1.174-0.135l0.074-2.496
		l-1.896-1.756l-1.301,2.053l0.168,3.466l4.525,0.636l-0.01,6.545l-3.732,3.92L51.531,35.844z M57.57,38.641l-0.742-0.454
		l-0.035-0.962l0.707-0.506l0.746,0.453l0.033,0.961L57.57,38.641z"/>
</g>
</svg>
